<?xml version="1.0" standalone="no"?>
<!DOCTYPE svg PUBLIC "-//W3C//DTD SVG 20010904//EN"
 "http://www.w3.org/TR/2001/REC-SVG-20010904/DTD/svg10.dtd">
<svg version="1.0" xmlns="http://www.w3.org/2000/svg"
 width="952.000000pt" height="795.000000pt" viewBox="0 0 952.000000 795.000000"
 preserveAspectRatio="xMidYMid meet">

<g transform="translate(0.000000,795.000000) scale(0.100000,-0.100000)"
fill="#000000" stroke="none">
<path d="M956 5225 c-32 -19 -94 -65 -138 -102 -51 -43 -87 -67 -99 -65 -35 6
-89 -19 -114 -52 -29 -39 -31 -53 -8 -78 15 -17 15 -18 -2 -18 -10 0 -38 -21
-62 -46 -36 -37 -44 -51 -41 -77 2 -27 8 -33 31 -35 23 -3 42 10 111 77 73 72
87 81 119 81 43 0 41 3 23 -42 -12 -27 -12 -39 -3 -58 27 -53 66 -52 139 4
l45 35 13 -24 c7 -14 22 -27 32 -31 18 -5 18 -7 3 -27 -36 -50 -56 -106 -45
-127 24 -46 98 -2 160 96 14 23 41 55 59 69 l32 28 25 -24 c22 -21 28 -22 56
-11 26 10 35 9 48 -3 24 -22 52 -18 94 10 l38 26 20 -26 c22 -28 44 -31 72
-10 16 12 22 11 47 -7 24 -18 31 -19 58 -8 30 12 121 101 121 118 0 4 -6 17
-14 27 -13 18 -15 18 -39 2 -35 -22 -44 -22 -23 2 22 24 32 116 16 136 -27 33
-116 9 -196 -51 l-30 -24 4 29 c4 29 -18 61 -43 61 -7 0 -26 -11 -42 -24 -25
-21 -31 -22 -48 -10 -31 23 -64 17 -100 -19 l-32 -32 -33 42 c-39 52 -63 55
-135 14 -44 -25 -53 -27 -69 -16 -17 13 -16 17 18 78 37 65 45 114 24 135 -18
18 -29 15 -92 -23z m80 -10 c3 -8 -17 -55 -44 -105 -49 -88 -50 -90 -26 -90
13 0 24 -6 24 -13 0 -19 -53 -67 -73 -67 -17 0 -61 -73 -50 -83 3 -4 18 0 34
9 44 22 35 -2 -13 -36 -48 -35 -91 -37 -96 -5 -1 11 9 42 22 68 l25 47 -67 0
-67 -1 -80 -79 c-71 -72 -115 -98 -115 -70 0 15 70 90 84 90 7 0 25 14 41 30
28 29 28 30 7 30 -13 0 -25 7 -29 17 -8 21 49 73 80 72 21 0 21 -1 2 -9 -18
-8 -17 -9 8 -9 21 -1 46 15 97 61 79 70 199 157 218 158 7 0 15 -7 18 -15z
m674 -170 c7 -8 8 -20 4 -27 -5 -7 -7 -21 -6 -31 2 -9 -6 -30 -17 -46 -23 -32
-28 -71 -8 -71 6 0 27 9 45 20 17 11 32 17 32 14 0 -30 -87 -104 -123 -104
-16 0 -19 6 -15 45 l3 44 -43 -42 c-46 -45 -66 -45 -87 1 -13 29 -21 28 -62
-8 -57 -51 -99 -32 -75 34 12 30 11 30 -28 -11 -47 -51 -77 -56 -93 -14 l-11
29 -46 -36 c-25 -20 -66 -65 -90 -101 -43 -63 -91 -103 -106 -89 -15 16 10 61
61 112 29 30 64 74 76 98 l22 43 -46 -42 c-60 -55 -92 -57 -113 -7 -19 44 -11
69 35 117 42 45 99 77 136 77 41 0 29 -27 -23 -54 -51 -26 -112 -86 -112 -111
0 -33 41 -11 104 56 51 55 70 69 79 60 11 -11 5 -37 -28 -115 -15 -35 33 2 61
47 39 62 75 97 101 97 35 0 28 -24 -22 -76 -43 -44 -57 -74 -34 -74 6 0 48 38
94 85 45 47 88 85 94 85 21 0 11 -41 -24 -93 -31 -46 -45 -87 -30 -87 18 0 65
33 70 49 9 30 81 90 139 117 60 28 69 29 86 9z m-760 -133 c0 -4 -9 -8 -19 -8
-11 0 -17 4 -15 8 3 4 12 8 20 8 8 0 14 -4 14 -8z"/>
<path d="M914 5132 c-27 -22 -67 -56 -89 -75 l-40 -36 50 -1 50 0 43 72 c23
39 40 73 38 75 -2 2 -25 -14 -52 -35z"/>
<path d="M1620 4974 c-62 -35 -90 -63 -90 -91 0 -23 1 -23 28 -9 25 13 84 76
106 114 10 16 8 16 -44 -14z"/>
<path d="M2045 5241 c-22 -10 -48 -16 -57 -13 -10 2 -34 -12 -58 -35 -32 -29
-43 -48 -47 -80 -6 -46 7 -73 36 -73 9 0 47 18 85 40 38 22 71 38 74 35 3 -2
-30 -57 -73 -120 -78 -116 -78 -116 -66 -155 22 -73 71 -71 115 4 15 25 28 46
29 46 2 0 4 -19 4 -42 2 -30 8 -48 23 -60 29 -23 49 -12 103 58 l42 54 5 -51
c10 -93 71 -114 158 -55 l51 34 22 -24 c27 -29 64 -31 103 -5 27 18 31 18 53
4 21 -14 25 -14 46 0 22 14 25 14 40 -4 22 -24 53 -24 95 1 l33 21 30 -26 c17
-14 37 -25 45 -25 31 0 91 33 132 73 l42 41 0 -32 c0 -69 64 -90 118 -39 22
20 24 21 33 5 18 -32 47 -41 80 -24 28 14 32 13 50 -5 25 -25 39 -24 85 7 32
22 39 24 48 12 38 -51 95 -39 159 31 28 31 37 50 35 69 -4 37 -37 40 -68 7
-13 -14 -27 -25 -32 -25 -17 0 -6 24 36 78 52 67 82 124 91 174 10 55 -1 78
-37 78 -42 0 -103 -66 -151 -162 -31 -61 -36 -67 -35 -40 1 41 -17 62 -56 62
-38 0 -107 -31 -148 -65 l-30 -26 -17 33 c-13 27 -23 34 -51 36 -19 1 -45 8
-57 14 -17 8 -27 8 -46 -5 -17 -11 -28 -12 -41 -5 -30 17 -95 2 -135 -30 l-37
-30 -11 29 c-14 36 -48 39 -87 8 -20 -16 -30 -19 -39 -10 -19 19 -66 13 -90
-12 -12 -12 -37 -44 -54 -70 -18 -26 -37 -47 -43 -47 -5 0 6 21 25 46 19 25
35 53 35 63 0 10 11 28 25 41 44 41 29 100 -25 100 -33 0 -58 -26 -66 -68 -4
-18 -10 -32 -14 -32 -14 0 -69 -62 -85 -96 -14 -30 -80 -82 -91 -72 -10 11 60
129 116 195 33 40 60 81 60 91 0 27 -38 72 -60 72 -10 0 -42 -20 -72 -45 l-53
-44 -6 36 c-7 42 -34 66 -63 57 -12 -4 -42 -22 -68 -41 -42 -31 -48 -32 -48
-15 0 11 -9 31 -21 46 -24 31 -64 33 -124 7z m111 -36 c13 -32 12 -39 -10 -94
l-24 -59 77 78 c42 42 87 81 99 84 25 8 52 -8 52 -29 0 -14 -51 -115 -85 -170
-10 -16 15 4 56 46 94 97 165 153 183 146 8 -3 19 -15 25 -25 9 -16 1 -30 -50
-88 -96 -111 -151 -244 -101 -244 25 0 112 57 112 73 0 7 14 32 31 55 30 41
67 61 88 47 14 -8 -8 -52 -43 -84 -32 -30 -35 -71 -5 -71 34 0 56 18 95 75 37
56 67 81 84 70 17 -10 11 -26 -20 -62 -53 -60 -32 -58 33 4 64 62 103 88 110
76 16 -31 13 -45 -18 -85 -33 -41 -45 -78 -26 -78 15 0 71 51 71 65 0 21 95
102 128 110 38 8 52 1 52 -26 0 -35 -19 -58 -75 -90 -55 -31 -71 -61 -39 -73
20 -8 72 15 106 47 22 20 27 32 22 55 -4 22 1 36 21 60 25 29 65 46 49 21 -4
-7 6 -10 32 -9 22 2 45 2 52 1 22 -2 12 -45 -18 -81 -29 -34 -38 -64 -22 -74
13 -8 72 32 72 48 0 31 150 136 196 136 18 0 37 -28 28 -42 -5 -7 -7 -22 -6
-34 2 -11 -6 -32 -18 -46 -25 -33 -27 -68 -2 -68 31 1 60 34 76 90 19 68 75
165 121 208 44 41 55 40 55 -3 0 -45 -37 -118 -95 -189 -45 -55 -50 -70 -39
-100 9 -23 32 -20 71 10 51 39 42 5 -12 -45 -55 -50 -83 -51 -104 -4 l-14 32
-43 -35 c-57 -47 -79 -43 -78 14 l1 43 -43 -42 c-48 -47 -69 -47 -87 0 l-11
29 -40 -34 c-45 -39 -71 -43 -86 -13 -13 24 -2 64 29 108 l20 28 -25 -5 c-14
-2 -59 -39 -102 -83 -65 -66 -83 -79 -110 -79 -37 0 -72 30 -72 62 0 21 -2 20
-32 -9 -40 -37 -75 -56 -88 -48 -16 10 -11 53 10 96 19 36 19 39 3 28 -10 -6
-36 -33 -57 -60 -42 -52 -54 -56 -72 -21 l-11 22 -19 -21 c-51 -57 -109 -56
-120 1 l-6 28 -52 -39 c-76 -57 -102 -64 -132 -34 -13 13 -24 34 -24 47 0 36
43 118 93 178 25 30 44 57 41 59 -8 8 -151 -139 -212 -216 -58 -74 -75 -86
-86 -57 -13 35 -4 63 44 129 68 93 113 172 107 188 -8 20 -117 -101 -196 -217
-40 -58 -76 -106 -81 -106 -12 0 -30 34 -30 55 0 9 24 51 54 94 59 84 106 166
106 187 0 24 -28 16 -108 -31 -42 -25 -82 -45 -89 -45 -8 0 -13 14 -13 36 0
27 7 43 31 65 17 16 36 29 43 29 6 0 4 -5 -4 -11 -19 -14 -10 -11 75 25 33 14
66 26 73 26 7 0 20 -16 28 -35z m503 -89 c14 -16 5 -43 -18 -55 -38 -19 -55
17 -24 51 19 22 27 22 42 4z m843 -198 c-7 -7 -12 -8 -12 -2 0 6 3 14 7 17 3
4 9 5 12 2 2 -3 -1 -11 -7 -17z m-496 -23 c-11 -8 -25 -15 -30 -15 -6 1 0 7
14 15 32 19 40 18 16 0z"/>
<path d="M3663 5119 c-13 -17 -40 -70 -54 -106 -10 -26 -9 -26 9 -10 23 21 65
103 60 118 -2 7 -7 6 -15 -2z"/>
<path d="M2973 4975 c-20 -20 -33 -39 -29 -42 8 -9 55 26 74 55 23 35 -5 27
-45 -13z"/>
<path d="M3388 4966 c-56 -33 -78 -57 -78 -83 0 -35 17 -28 76 32 73 75 74 94
2 51z"/>
<path d="M3602 4644 c-33 -23 -48 -58 -118 -275 -106 -330 -280 -864 -339
-1039 -31 -91 -63 -202 -72 -248 l-18 -82 27 -26 c54 -54 166 -38 207 30 10
17 40 93 66 169 l48 137 263 0 263 0 15 -27 c7 -16 27 -71 44 -123 16 -53 39
-114 50 -137 38 -73 123 -104 191 -68 58 29 56 92 -8 283 -48 141 -303 939
-392 1222 -52 166 -78 200 -156 200 -28 0 -58 -7 -71 -16z m163 -805 c52 -156
95 -287 95 -291 0 -5 -86 -8 -191 -8 -177 0 -191 1 -186 18 18 67 182 570 184
568 2 -2 46 -131 98 -287z"/>
<path d="M5555 4577 c-27 -24 -76 -76 -108 -113 l-59 -69 2 -405 c1 -542 8
-647 46 -725 17 -37 53 -85 94 -125 91 -91 194 -140 368 -175 l32 -7 0 115 0
114 -47 7 c-107 14 -211 93 -247 187 -14 37 -16 77 -14 263 l3 219 153 -2 153
-2 -3 118 -3 118 -157 3 -158 3 -2 261 -3 261 -50 -46z"/>
<path d="M6180 4527 c-77 -85 -140 -161 -140 -171 0 -3 50 -6 110 -6 l110 0
-1 63 c-1 34 -4 90 -8 124 l-6 62 -65 -72z"/>
<path d="M1849 4487 c-56 -29 -95 -98 -85 -151 29 -156 265 -118 283 46 6 50
-14 101 -46 118 -34 17 -105 12 -152 -13z"/>
<path d="M2961 4437 c-51 -26 -66 -61 -69 -165 -4 -153 11 -138 -149 -145
-200 -7 -319 -52 -431 -160 -127 -122 -241 -374 -272 -599 -13 -95 -7 -170 21
-245 39 -103 154 -169 284 -161 88 6 155 35 257 110 43 32 80 58 83 58 3 0 5
-16 5 -36 0 -19 5 -44 10 -55 24 -44 126 -69 183 -45 48 20 67 52 77 133 5 37
14 111 20 163 17 138 104 624 145 813 20 89 38 192 42 229 5 62 4 68 -20 92
-23 23 -34 26 -94 26 -37 0 -79 -6 -92 -13z m-139 -500 c-3 -79 -67 -409 -96
-502 -66 -209 -261 -376 -348 -298 -101 91 -102 408 -2 620 77 163 204 245
369 240 l80 -2 -3 -58z"/>
<path d="M8913 4381 c-169 -43 -245 -249 -143 -389 84 -117 285 -124 381 -14
44 50 59 92 59 167 0 73 -14 114 -54 162 -49 59 -164 94 -243 74z m146 -61
c73 -37 106 -104 99 -200 -7 -100 -68 -165 -166 -177 -140 -16 -242 103 -211
247 27 123 166 188 278 130z"/>
<path d="M8877 4273 c-4 -3 -7 -61 -7 -129 0 -99 3 -123 15 -128 32 -12 45 5
45 55 0 33 4 49 13 49 24 0 55 -30 62 -60 4 -17 15 -35 25 -40 20 -11 50 -4
50 11 0 19 -27 74 -43 88 -15 12 -15 15 8 33 35 27 34 79 -1 107 -21 17 -41
21 -94 21 -37 0 -70 -3 -73 -7z m107 -43 c47 -17 27 -70 -26 -70 -26 0 -28 3
-28 40 0 43 8 48 54 30z"/>
<path d="M6285 4280 c-16 -7 -17 -9 -3 -9 9 -1 20 4 23 9 7 11 7 11 -20 0z"/>
<path d="M6244 4272 c3 -5 0 -13 -6 -15 -9 -4 -10 -6 -1 -6 17 -1 25 16 12 25
-7 4 -9 3 -5 -4z"/>
<path d="M6482 4234 c4 -22 -39 -46 -67 -38 -11 4 -17 3 -13 -1 13 -14 62 -14
78 -1 8 8 20 15 25 17 6 2 3 12 -8 22 -17 17 -18 17 -15 1z"/>
<path d="M6520 4240 c-8 -5 -10 -10 -5 -10 6 0 17 5 25 10 8 5 11 10 5 10 -5
0 -17 -5 -25 -10z"/>
<path d="M6398 4233 c6 -2 18 -2 25 0 6 3 1 5 -13 5 -14 0 -19 -2 -12 -5z"/>
<path d="M6185 4220 c-24 -6 -17 -8 33 -9 34 0 62 2 62 7 0 10 -58 11 -95 2z"/>
<path d="M6298 4219 c-6 -4 -2 -12 11 -18 14 -8 21 -8 21 -1 0 5 7 10 15 10
14 0 18 -10 13 -27 -2 -5 -7 -7 -13 -5 -5 2 -4 -2 3 -9 6 -7 12 -23 12 -35 0
-12 7 -27 15 -34 13 -11 18 -10 30 6 18 24 19 35 1 28 -8 -3 -16 -1 -20 4 -3
5 5 8 17 7 12 -1 28 2 35 8 14 11 17 31 2 22 -5 -3 -19 -1 -30 5 -12 6 -20 7
-20 1 0 -5 5 -12 10 -14 6 -3 5 -4 -2 -3 -7 2 -13 11 -14 22 -2 42 -4 44 -40
41 -20 -1 -40 -5 -46 -8z"/>
<path d="M5898 4213 c7 -3 16 -2 19 1 4 3 -2 6 -13 5 -11 0 -14 -3 -6 -6z"/>
<path d="M5968 4213 c6 -2 18 -2 25 0 6 3 1 5 -13 5 -14 0 -19 -2 -12 -5z"/>
<path d="M6038 4213 c18 -2 45 -2 60 0 15 2 0 4 -33 4 -33 0 -45 -2 -27 -4z"/>
<path d="M6590 4216 c0 -15 52 -66 67 -66 7 0 13 -5 13 -11 0 -5 -5 -7 -11 -3
-10 6 -4 -6 38 -73 10 -16 18 -30 18 -33 4 -26 18 -49 27 -44 7 4 8 2 4 -4 -8
-14 30 -92 46 -92 6 0 9 -3 5 -6 -7 -7 60 -146 75 -155 5 -3 9 -9 8 -13 -1 -4
20 -45 46 -92 55 -96 47 -97 110 9 19 32 31 64 28 70 -4 7 -3 9 1 4 5 -4 26
23 46 60 28 49 35 71 27 80 -6 7 -14 10 -19 7 -5 -3 -6 2 -3 10 3 8 14 14 24
13 10 -1 16 -5 14 -9 -3 -5 -10 -5 -16 -2 -7 4 -8 2 -4 -4 12 -20 36 0 64 52
36 68 35 66 22 66 -6 0 -9 -4 -5 -9 3 -5 0 -13 -6 -16 -6 -4 -22 7 -36 23 -14
18 -31 28 -39 25 -8 -3 -14 0 -14 6 0 6 -7 11 -15 11 -8 0 -15 5 -15 10 0 6
-5 10 -11 10 -6 0 -9 -7 -5 -15 6 -17 -16 -19 -49 -5 -19 8 -19 9 3 9 24 1 31
21 7 21 -8 0 -30 9 -50 20 -20 11 -48 20 -63 20 -21 0 -24 2 -12 10 12 8 11
10 -7 10 -16 0 -21 -4 -17 -15 5 -11 2 -13 -10 -9 -9 3 -16 14 -17 23 0 12 -3
10 -11 -6 -13 -26 -23 -29 -31 -9 -4 9 -17 12 -41 9 -20 -2 -36 1 -36 6 0 6
19 11 43 13 l42 3 -35 22 c-36 24 -80 31 -80 13 0 -5 4 -10 8 -10 5 0 9 -7 9
-15 0 -8 -4 -15 -9 -15 -4 0 -8 8 -8 18 0 14 -2 15 -10 2 -5 -8 -12 -11 -16
-7 -4 4 2 17 13 30 11 12 23 29 27 37 4 8 0 6 -8 -4 -9 -11 -16 -16 -17 -10 0
5 -5 -2 -10 -16 l-10 -25 -29 32 c-15 17 -31 29 -35 25 -3 -4 -10 0 -15 8 -6
8 -10 11 -10 6z m113 -116 c3 -11 1 -18 -4 -14 -5 3 -9 12 -9 20 0 20 7 17 13
-6z m292 -60 c3 -5 1 -10 -4 -10 -6 0 -11 5 -11 10 0 6 2 10 4 10 3 0 8 -4 11
-10z m-165 -27 c13 3 20 0 20 -8 0 -8 8 -16 18 -19 9 -3 0 -3 -20 0 -20 3 -49
11 -65 19 -16 9 -31 11 -38 5 -7 -6 -11 -2 -12 10 -2 18 0 19 38 4 21 -9 48
-14 59 -11z m105 -53 c3 -6 3 -10 -2 -10 -11 1 -43 26 -43 34 0 9 37 -11 45
-24z m190 20 c3 -5 -1 -10 -9 -10 -8 0 -18 5 -21 10 -3 6 1 10 9 10 8 0 18 -4
21 -10z m54 -48 c11 -25 10 -26 -4 -8 -11 14 -15 16 -15 5 0 -12 -2 -12 -10 1
-5 8 -10 11 -10 7 0 -5 -4 -5 -10 -2 -13 8 11 34 26 28 6 -2 16 -16 23 -31z
m-175 -2 c26 -11 50 -18 53 -17 4 1 9 -6 11 -15 4 -22 -16 -24 -24 -3 -4 8
-14 15 -24 15 -11 0 -22 5 -25 10 -3 6 -17 10 -31 10 -14 0 -22 4 -19 10 8 13
6 13 59 -10z m-184 6 c0 -2 -7 -7 -16 -10 -8 -3 -12 -2 -9 4 6 10 25 14 25 6z
m285 -56 c3 -5 1 -10 -4 -10 -6 0 -11 5 -11 10 0 6 2 10 4 10 3 0 8 -4 11 -10z
m-224 -87 c13 -17 13 -17 -6 -3 -11 8 -22 16 -24 17 -2 2 0 3 6 3 6 0 17 -8
24 -17z"/>
<path d="M542 4096 c-38 -18 -39 10 9 -286 63 -388 135 -702 172 -758 32 -47
97 -76 153 -68 86 11 114 34 183 151 35 59 123 222 196 363 73 142 149 286
170 322 20 36 57 104 81 152 l44 88 -39 20 c-88 44 -165 32 -216 -34 -23 -30
-175 -345 -305 -628 -34 -76 -66 -138 -70 -138 -8 0 -16 48 -61 373 -48 351
-63 408 -113 434 -43 23 -162 28 -204 9z"/>
<path d="M1820 4101 c-91 -19 -102 -41 -130 -258 -12 -87 -36 -246 -55 -353
-47 -267 -69 -426 -62 -445 10 -25 70 -55 110 -55 48 0 104 25 124 57 23 35
185 1004 170 1021 -24 30 -97 45 -157 33z"/>
<path d="M4701 4074 c-188 -50 -341 -200 -397 -389 -24 -81 -24 -239 0 -320
72 -242 281 -394 546 -398 148 -2 266 36 352 113 l42 37 -38 51 c-21 28 -52
60 -67 71 l-29 21 -37 -24 c-97 -64 -230 -77 -326 -33 -233 107 -284 402 -97
570 67 61 143 89 238 89 65 0 83 -4 149 -37 l75 -37 64 63 c35 35 64 69 64 75
0 17 -72 80 -117 102 -21 11 -69 29 -107 41 -82 25 -231 28 -315 5z"/>
<path d="M6032 3518 l3 -573 106 -3 c104 -3 106 -3 113 20 3 13 6 272 6 576
l0 552 -115 0 -115 0 2 -572z"/>
<path d="M8002 4076 c-204 -52 -366 -212 -417 -411 -19 -75 -19 -223 0 -295
66 -248 263 -410 520 -427 121 -8 145 -2 145 37 0 16 -11 65 -25 108 l-25 79
-63 6 c-138 13 -250 85 -304 195 -23 49 -27 70 -28 147 0 77 4 98 27 147 32
69 96 134 163 168 43 22 63 25 150 25 81 0 109 -4 146 -21 60 -28 125 -87 152
-138 21 -40 22 -51 22 -386 l0 -345 116 -3 116 -3 6 168 c7 190 -5 426 -28
535 -20 98 -58 172 -123 241 -115 120 -237 177 -397 183 -63 2 -119 -1 -153
-10z"/>
<path d="M6467 4000 c-42 -46 -77 -87 -77 -92 0 -4 20 -45 44 -91 24 -45 135
-257 246 -472 110 -214 206 -393 213 -397 7 -5 48 -7 92 -6 l79 3 19 37 c70
132 468 916 471 928 5 14 -139 178 -148 169 -4 -4 -220 -391 -366 -657 -60
-111 -75 -131 -86 -120 -7 7 -95 175 -196 374 -101 199 -190 371 -198 384 -16
23 -16 22 -93 -60z"/>
<path d="M5740 3673 c0 -40 5 -85 11 -100 7 -15 18 -42 25 -60 8 -17 14 -33
14 -36 0 -2 10 -26 22 -53 11 -27 19 -49 17 -49 -2 0 6 -15 19 -32 13 -18 32
-33 43 -33 18 0 19 9 19 215 0 165 -3 215 -12 216 -7 0 -46 2 -85 3 l-73 1 0
-72z m100 27 c0 -5 -4 -10 -10 -10 -5 0 -10 5 -10 10 0 6 5 10 10 10 6 0 10
-4 10 -10z m10 -66 c0 -22 -16 -17 -17 6 -1 11 2 18 8 15 5 -4 9 -13 9 -21z"/>
<path d="M6368 3287 c-3 -368 -4 -386 -23 -407 -59 -66 -196 -73 -505 -24 -25
4 -31 3 -20 -5 8 -5 17 -8 21 -6 7 5 1 -40 -8 -65 -4 -8 -5 -18 -5 -22 1 -5
-3 -8 -9 -8 -6 0 -8 9 -4 23 8 24 8 24 6 50 -2 29 -21 19 -21 -12 0 -16 -6
-31 -15 -35 -8 -3 -15 -9 -14 -13 1 -4 0 -12 -1 -18 -2 -5 -3 -25 -4 -42 -1
-29 2 -33 23 -33 28 0 18 -16 -14 -22 -26 -4 -30 -58 -4 -58 21 0 15 -32 -9
-52 -13 -11 -14 -10 -8 10 5 13 3 22 -3 22 -6 0 -11 -13 -11 -30 0 -16 -5 -30
-11 -30 -5 0 -7 -5 -3 -11 5 -8 10 -7 16 4 5 9 15 14 23 11 11 -5 14 -19 11
-56 -4 -48 -16 -80 -16 -42 0 14 -4 12 -16 -11 -14 -27 -14 -30 2 -42 10 -7
21 -13 25 -13 4 0 12 -23 18 -50 14 -66 14 -71 -4 -36 -8 15 -15 40 -15 54 0
43 -14 14 -17 -36 -2 -25 -8 -49 -14 -52 -13 -9 -4 -183 10 -188 6 -2 11 -11
11 -20 0 -12 -3 -13 -12 -4 -7 7 -23 12 -38 12 l-25 0 23 -18 c30 -23 22 -72
-12 -73 -14 0 -16 -2 -6 -6 8 -3 23 -12 32 -20 9 -8 22 -12 27 -8 6 3 11 2 11
-3 0 -16 -167 -92 -245 -112 -115 -29 -251 -35 -370 -15 -55 10 -110 18 -122
19 -11 0 -19 4 -17 7 2 4 -7 9 -20 11 -19 4 -23 1 -23 -18 0 -27 22 -40 72
-43 28 -1 35 -20 8 -22 -12 -1 -9 -4 7 -8 14 -4 27 -4 28 1 8 18 20 6 15 -14
-5 -22 -5 -22 9 -4 13 17 14 15 12 -20 -3 -28 -1 -35 6 -24 5 8 10 11 10 6 0
-5 6 -3 14 3 11 9 16 9 22 0 4 -7 0 -17 -9 -24 -19 -13 -23 -35 -7 -35 6 0 10
7 10 15 0 8 7 15 15 15 20 0 19 -6 -4 -27 -19 -18 -19 -19 -1 -41 19 -22 38
-14 24 11 -5 9 -4 9 6 0 7 -7 14 -25 15 -40 3 -50 5 -53 21 -53 18 0 44 -23
44 -39 0 -6 5 -11 10 -11 6 0 10 -9 10 -21 0 -15 -5 -19 -15 -15 -17 6 -21
-19 -5 -29 6 -3 10 0 10 7 0 9 3 9 8 2 4 -6 16 -16 27 -22 11 -6 14 -12 8 -12
-7 0 -13 -5 -13 -11 0 -6 6 -9 13 -6 7 3 13 -3 14 -12 2 -14 5 -33 12 -73 2
-15 20 -8 24 9 4 15 6 15 12 -4 4 -13 13 -23 21 -23 7 0 16 -5 19 -10 4 -7 -3
-8 -21 -4 l-27 7 22 -22 c12 -12 36 -23 52 -23 16 -1 29 -5 29 -10 0 -8 -10
-11 -42 -11 -44 0 -11 -15 65 -31 288 -59 358 -69 429 -63 33 3 61 1 64 -5 7
-12 245 -1 359 17 283 43 554 128 750 234 134 73 174 97 225 135 30 24 75 56
100 74 41 28 240 218 265 253 6 8 41 57 78 109 37 52 71 100 77 107 10 13 93
204 105 243 4 14 11 30 16 35 4 6 13 33 19 60 6 28 15 59 20 70 24 51 48 379
29 390 -4 3 -6 18 -3 33 5 26 2 28 -85 55 -124 40 -201 87 -301 187 -105 104
-163 210 -182 333 -8 51 -16 77 -25 77 -7 0 -58 -92 -114 -207 -154 -319 -172
-353 -205 -392 l-32 -36 -104 -3 c-124 -4 -180 8 -206 46 -11 15 -102 189
-203 387 -100 198 -190 370 -200 383 -17 22 -18 9 -21 -361z m-558 -561 c0
-11 -19 -15 -25 -6 -3 5 1 10 9 10 9 0 16 -2 16 -4z m-43 -788 c-3 -7 -5 -2
-5 12 0 14 2 19 5 13 2 -7 2 -19 0 -25z m-237 -219 c0 -6 -4 -7 -10 -4 -5 3
-10 11 -10 16 0 6 5 7 10 4 6 -3 10 -11 10 -16z m-50 -9 c0 -5 -2 -10 -4 -10
-3 0 -8 5 -11 10 -3 6 -1 10 4 10 6 0 11 -4 11 -10z m-50 -10 c0 -5 -7 -10
-15 -10 -8 0 -15 5 -15 10 0 6 7 10 15 10 8 0 15 -4 15 -10z m-54 -14 c-2 -6
-9 -10 -16 -8 -7 1 -19 -3 -26 -9 -16 -13 -41 2 -31 18 8 13 78 11 73 -1z
m-98 -18 c-5 -32 -28 -35 -28 -4 0 17 5 26 16 26 10 0 14 -7 12 -22z m-50 0
c-7 -19 -38 -22 -38 -4 0 10 9 16 21 16 12 0 19 -5 17 -12z m66 -54 c9 -22 -3
-32 -14 -14 -12 19 -12 30 -1 30 5 0 12 -7 15 -16z m46 -74 c0 -5 -4 -10 -10
-10 -5 0 -10 5 -10 10 0 6 5 10 10 10 6 0 10 -4 10 -10z m50 0 c0 -5 -5 -10
-11 -10 -5 0 -7 5 -4 10 3 6 8 10 11 10 2 0 4 -4 4 -10z m-25 -41 c11 -17 -1
-21 -15 -4 -8 9 -8 15 -2 15 6 0 14 -5 17 -11z m78 -131 c9 -31 2 -33 -11 -3
-6 14 -8 25 -3 25 5 0 11 -10 14 -22z m32 -48 c3 -5 1 -10 -4 -10 -6 0 -11 5
-11 10 0 6 2 10 4 10 3 0 8 -4 11 -10z m27 -37 c10 -9 18 -23 18 -31 0 -10 -7
-7 -25 9 -37 36 -31 57 7 22z m66 -72 c3 -8 -1 -12 -9 -9 -7 2 -15 10 -17 17
-3 8 1 12 9 9 7 -2 15 -10 17 -17z m42 9 c0 -5 -2 -10 -4 -10 -3 0 -8 5 -11
10 -3 6 -1 10 4 10 6 0 11 -4 11 -10z m100 -9 c0 -5 -7 -11 -15 -15 -9 -3 -15
0 -15 9 0 8 7 15 15 15 8 0 15 -4 15 -9z m25 -31 c3 -5 2 -10 -4 -10 -5 0 -13
5 -16 10 -3 6 -2 10 4 10 5 0 13 -4 16 -10z m-150 -30 c-3 -5 -14 -10 -23 -10
-15 0 -15 2 -2 10 20 13 33 13 25 0z m-50 -10 c3 -5 2 -10 -4 -10 -5 0 -13 5
-16 10 -3 6 -2 10 4 10 5 0 13 -4 16 -10z m68 -17 c-7 -2 -19 -2 -25 0 -7 3
-2 5 12 5 14 0 19 -2 13 -5z m52 -3 c3 -5 1 -10 -4 -10 -6 0 -11 5 -11 10 0 6
2 10 4 10 3 0 8 -4 11 -10z"/>
<path d="M5755 2870 c3 -5 11 -10 16 -10 6 0 7 5 4 10 -3 6 -11 10 -16 10 -6
0 -7 -4 -4 -10z"/>
<path d="M1565 2665 c-24 -23 -25 -29 -25 -165 0 -136 1 -142 25 -165 23 -24
29 -25 165 -25 136 0 142 1 165 25 24 23 25 29 25 165 0 136 -1 142 -25 165
-23 24 -29 25 -165 25 -136 0 -142 -1 -165 -25z m285 -47 c17 -19 20 -35 20
-119 0 -93 -1 -98 -26 -118 -22 -18 -41 -21 -114 -21 -73 0 -92 3 -114 21 -25
20 -26 25 -26 118 0 135 6 141 140 141 89 0 101 -2 120 -22z"/>
<path d="M1632 2598 c-7 -7 -12 -44 -12 -98 0 -54 5 -91 12 -98 16 -16 180
-16 196 0 7 7 12 44 12 98 0 54 -5 91 -12 98 -16 16 -180 16 -196 0z m188 -23
c0 -8 -7 -15 -15 -15 -8 0 -15 7 -15 15 0 8 7 15 15 15 8 0 15 -7 15 -15z
m-37 -23 c26 -23 23 -87 -5 -106 -54 -38 -122 -6 -120 55 2 68 72 97 125 51z"/>
<path d="M1695 2526 c-23 -34 -5 -66 35 -66 51 0 63 65 14 84 -26 10 -33 7
-49 -18z"/>
<path d="M2064 2636 c-70 -31 -101 -120 -69 -202 9 -24 26 -49 38 -56 63 -34
136 -27 177 17 29 31 13 32 -35 4 -69 -41 -156 -7 -169 67 -9 47 10 109 41
133 59 47 153 11 153 -59 0 -35 -25 -90 -41 -90 -10 0 -6 66 7 111 7 24 -88
24 -110 0 -25 -28 -32 -86 -13 -115 14 -21 23 -24 69 -22 63 2 73 7 94 48 22
43 14 113 -18 144 -30 30 -83 39 -124 20z m56 -91 c14 -17 5 -68 -16 -85 -7
-7 -21 -9 -30 -6 -27 10 -3 106 26 106 4 0 13 -7 20 -15z"/>
<path d="M2400 2625 c0 -8 9 -15 20 -15 11 0 20 7 20 15 0 8 -9 15 -20 15 -11
0 -20 -7 -20 -15z"/>
<path d="M2570 2606 c0 -34 0 -35 -36 -29 -29 5 -40 2 -50 -12 -19 -25 -18
-95 2 -123 17 -24 53 -29 72 -10 9 9 12 9 12 0 0 -7 7 -12 15 -12 12 0 15 19
15 110 0 91 -3 110 -15 110 -10 0 -15 -10 -15 -34z m-8 -81 c13 -30 -3 -75
-27 -75 -24 0 -40 45 -27 75 6 14 19 25 27 25 8 0 21 -11 27 -25z"/>
<path d="M3030 2625 c0 -8 7 -15 15 -15 8 0 15 7 15 15 0 8 -7 15 -15 15 -8 0
-15 -7 -15 -15z"/>
<path d="M2947 2623 c-4 -3 -7 -15 -7 -25 0 -10 -4 -18 -10 -18 -5 0 -10 -7
-10 -15 0 -8 4 -15 10 -15 5 0 10 -28 12 -62 3 -60 4 -63 31 -66 29 -4 39 21
12 32 -10 4 -15 20 -15 51 0 33 4 45 15 45 8 0 15 7 15 15 0 8 -7 15 -15 15
-9 0 -15 9 -15 25 0 24 -10 32 -23 18z"/>
<path d="M2670 2580 c-14 -3 -26 -14 -28 -24 -3 -15 1 -16 31 -11 44 9 59 -11
20 -25 -46 -16 -58 -26 -61 -49 -6 -36 14 -50 69 -49 l49 1 0 67 c0 81 -21
105 -80 90z m44 -113 c-6 -17 -39 -23 -48 -9 -11 18 31 47 47 32 4 -3 5 -14 1
-23z"/>
<path d="M3285 2582 c-20 -4 -35 -19 -35 -35 0 -4 15 -5 34 -2 43 9 58 -11 19
-25 -46 -16 -58 -26 -61 -49 -6 -36 14 -50 69 -49 l49 1 0 67 c0 42 -5 71 -12
77 -19 15 -41 20 -63 15z m38 -112 c-5 -20 -37 -28 -47 -12 -6 11 6 28 24 34
22 8 29 1 23 -22z"/>
<path d="M2242 2569 c3 -8 15 -45 28 -82 28 -88 45 -86 77 7 27 82 27 86 9 86
-8 0 -22 -22 -32 -52 l-17 -53 -17 50 c-11 32 -23 51 -35 54 -12 2 -16 -2 -13
-10z"/>
<path d="M2400 2500 c0 -73 2 -80 20 -80 18 0 20 7 20 80 0 73 -2 80 -20 80
-18 0 -20 -7 -20 -80z"/>
<path d="M2794 2555 c-21 -32 -14 -103 13 -123 26 -19 73 -11 91 15 13 20 13
23 -2 29 -11 4 -22 0 -30 -11 -22 -30 -46 -12 -46 34 0 47 13 58 46 40 28 -15
43 -5 28 19 -6 10 -27 18 -47 20 -29 3 -39 -2 -53 -23z"/>
<path d="M3030 2500 c0 -64 3 -80 15 -80 12 0 15 16 15 80 0 64 -3 80 -15 80
-12 0 -15 -16 -15 -80z"/>
<path d="M3090 2572 c0 -4 11 -39 23 -78 32 -93 49 -95 77 -7 13 37 25 74 28
82 3 8 -1 12 -13 10 -12 -3 -24 -22 -35 -54 l-17 -50 -17 53 c-10 30 -24 52
-32 52 -8 0 -14 -4 -14 -8z"/>
<path d="M3460 2573 c0 -10 49 -145 55 -151 13 -14 33 14 53 75 26 82 26 83 8
83 -8 0 -22 -22 -32 -52 l-17 -53 -17 50 c-10 30 -24 51 -33 53 -10 2 -17 0
-17 -5z"/>
<path d="M3630 2565 c-18 -22 -22 -87 -8 -115 11 -20 21 -25 52 -25 26 0 42 6
50 17 15 24 0 34 -28 19 -26 -15 -46 -8 -46 15 0 10 12 14 45 14 49 0 52 4 31
55 -13 30 -20 35 -49 35 -19 0 -40 -7 -47 -15z m68 -38 c3 -12 -3 -17 -22 -17
-25 0 -35 18 -19 34 12 12 38 2 41 -17z"/>
<path d="M5752 2480 c0 -19 2 -27 5 -17 2 9 2 25 0 35 -3 9 -5 1 -5 -18z"/>
<path d="M3400 2440 c0 -11 7 -20 15 -20 8 0 15 9 15 20 0 11 -7 20 -15 20 -8
0 -15 -9 -15 -20z"/>
<path d="M5646 1915 c-3 -8 -1 -15 4 -15 13 0 22 18 11 24 -5 3 -11 -1 -15 -9z"/>
<path d="M4918 1823 c7 -3 16 -2 19 1 4 3 -2 6 -13 5 -11 0 -14 -3 -6 -6z"/>
<path d="M5066 1683 c-6 -14 -5 -15 5 -6 7 7 10 15 7 18 -3 3 -9 -2 -12 -12z"/>
<path d="M5240 1446 c0 -9 7 -16 16 -16 17 0 14 22 -4 28 -7 2 -12 -3 -12 -12z"/>
<path d="M5385 1190 c3 -5 8 -10 11 -10 2 0 4 5 4 10 0 6 -5 10 -11 10 -5 0
-7 -4 -4 -10z"/>
<path d="M5175 957 c-76 -128 -162 -248 -182 -253 -47 -12 -21 -24 52 -24 43
0 75 4 75 10 0 6 -13 10 -30 10 -34 0 -38 14 -14 48 13 19 24 22 84 22 67 0
70 -1 85 -30 20 -38 19 -40 -10 -40 -14 0 -25 -4 -25 -10 0 -6 42 -10 105 -10
104 0 125 6 83 25 -13 6 -59 67 -103 137 -44 70 -85 132 -91 138 -7 7 -16 -1
-29 -23z m13 -122 c12 -19 22 -37 22 -40 0 -3 -25 -5 -55 -5 l-55 0 26 40 c15
22 29 40 33 40 3 0 16 -16 29 -35z"/>
<path d="M5594 976 c-89 -28 -144 -85 -144 -149 0 -42 34 -95 80 -121 53 -31
201 -35 264 -8 26 12 46 28 46 36 0 13 -7 12 -42 -6 -54 -29 -142 -31 -182 -5
-33 22 -46 54 -46 117 0 40 5 56 28 81 24 27 37 33 84 37 65 5 124 -18 141
-55 17 -38 27 -26 27 32 0 50 -12 73 -22 43 -4 -10 -17 -10 -64 0 -74 15 -117
14 -170 -2z"/>
<path d="M7075 868 c-84 -133 -111 -168 -132 -168 -7 0 -13 -4 -13 -10 0 -6
30 -10 70 -10 40 0 70 4 70 10 0 6 -11 10 -25 10 -18 0 -25 5 -25 18 0 35 32
52 98 52 54 0 63 -3 81 -26 27 -35 26 -44 -4 -44 -14 0 -25 -4 -25 -10 0 -6
42 -10 105 -10 63 0 105 4 105 10 0 6 -9 10 -19 10 -14 0 -45 40 -111 145 -51
80 -93 145 -95 145 -2 0 -38 -55 -80 -122z m65 -76 c-17 -2 -41 -2 -55 0 l-24
3 27 42 26 42 28 -42 28 -42 -30 -3z"/>
<path d="M7868 976 c-84 -23 -148 -89 -148 -152 0 -44 36 -90 92 -118 43 -22
66 -26 132 -26 81 0 153 22 171 50 14 22 -4 22 -42 -1 -48 -30 -144 -33 -185
-6 -69 47 -62 184 12 222 64 33 178 8 195 -44 12 -39 25 -21 25 34 0 52 -1 54
-19 43 -15 -9 -31 -9 -71 0 -64 15 -101 14 -162 -2z"/>
<path d="M8493 915 c-101 -162 -138 -210 -161 -213 -12 -2 -22 -8 -22 -13 0
-5 34 -9 75 -9 43 0 75 4 75 10 0 6 -11 10 -25 10 -27 0 -32 18 -15 51 9 16
22 19 80 19 69 0 71 -1 90 -32 l20 -33 -25 -3 c-14 -2 -25 -8 -25 -13 0 -5 47
-9 105 -9 58 0 105 4 105 9 0 5 -10 11 -22 13 -17 2 -45 39 -110 142 -48 76
-90 141 -92 143 -2 3 -26 -30 -53 -72z m40 -123 c-12 -2 -36 -2 -53 0 l-30 3
26 43 26 43 27 -43 28 -43 -24 -3z"/>
<path d="M838 969 l32 -10 0 -129 0 -130 -30 0 c-16 0 -30 -5 -30 -10 0 -7 65
-10 187 -8 l187 3 9 43 c5 24 6 46 3 49 -2 3 -17 -9 -33 -26 -30 -33 -87 -49
-150 -43 -33 3 -33 4 -33 58 0 54 0 55 28 52 19 -2 31 -12 42 -35 8 -18 18
-33 23 -33 4 0 7 36 7 80 0 47 -4 80 -10 80 -5 0 -10 -6 -10 -13 0 -20 -33
-47 -58 -47 -20 0 -22 5 -22 55 l0 55 45 0 c58 0 111 -22 120 -49 11 -36 25
-23 25 24 l0 45 -182 -1 c-132 -1 -174 -3 -150 -10z"/>
<path d="M1770 971 c8 -6 18 -7 22 -5 4 3 8 -61 8 -142 l0 -146 23 7 c12 3 27
6 32 5 101 -13 136 -11 168 9 83 51 73 161 -17 191 -34 11 -81 5 -103 -13 -10
-7 -13 3 -13 47 l0 56 -67 0 c-45 0 -63 -3 -53 -9z m205 -134 c4 -13 5 -45 3
-72 -3 -54 -21 -72 -61 -61 -26 6 -27 9 -27 75 0 37 3 71 7 74 3 4 21 7 39 7
27 0 35 -5 39 -23z"/>
<path d="M2938 968 c21 -11 22 -16 22 -135 0 -116 -1 -125 -20 -130 -46 -12
-15 -23 65 -23 50 0 85 4 85 10 0 6 -9 10 -20 10 -19 0 -20 7 -20 140 l0 140
-67 -1 c-56 0 -64 -2 -45 -11z"/>
<path d="M3113 969 c15 -9 17 -27 17 -139 0 -109 -2 -130 -15 -130 -8 0 -15
-4 -15 -10 0 -6 33 -10 80 -10 47 0 80 4 80 10 0 6 -7 10 -15 10 -13 0 -15 22
-15 140 l0 140 -67 0 c-51 -1 -64 -3 -50 -11z"/>
<path d="M3768 968 c17 -9 22 -20 22 -50 0 -43 1 -42 -35 -28 -37 14 -95 -3
-126 -36 -18 -19 -24 -37 -24 -71 0 -38 5 -49 33 -74 25 -22 42 -29 75 -29 23
0 49 4 57 10 9 6 17 5 21 -2 8 -12 129 -1 129 13 0 5 -7 9 -15 9 -13 0 -15 22
-15 135 l0 135 -72 -1 c-60 0 -69 -2 -50 -11z m3 -108 c15 -9 19 -22 19 -68 0
-63 -11 -82 -47 -82 -29 0 -43 27 -43 84 0 63 27 89 71 66z"/>
<path d="M5900 940 c0 -22 3 -40 6 -40 3 0 19 14 34 30 21 23 37 30 64 30 l37
0 -3 -127 -3 -128 -27 -3 c-16 -2 -28 -8 -28 -13 0 -5 51 -9 116 -9 74 0 113
4 109 10 -3 6 -17 10 -31 10 l-24 0 0 130 0 130 26 0 c32 0 84 -29 84 -47 0
-7 5 -13 10 -13 6 0 10 18 10 40 l0 40 -190 0 -190 0 0 -40z"/>
<path d="M6338 969 l32 -10 0 -129 0 -130 -30 0 c-16 0 -30 -4 -30 -10 0 -6
45 -10 115 -10 65 0 115 4 115 9 0 5 -12 11 -27 13 l-28 3 -3 127 -3 127 33
10 c25 7 5 9 -87 9 -91 0 -112 -2 -87 -9z"/>
<path d="M6571 965 c15 -8 59 -69 109 -149 45 -75 87 -136 92 -136 5 0 39 48
76 107 37 59 86 127 110 150 l42 43 -72 -1 c-61 0 -69 -2 -45 -11 15 -5 27
-16 27 -24 0 -7 -22 -48 -49 -90 l-48 -76 -53 87 c-52 86 -54 99 -15 108 11 3
-29 5 -90 5 -100 1 -108 0 -84 -13z"/>
<path d="M2505 925 c-22 -19 -48 -37 -57 -41 -24 -7 -23 -24 2 -24 18 0 20 -7
20 -74 0 -66 3 -77 22 -90 31 -22 80 -20 112 5 15 12 25 24 22 27 -3 2 -12 -1
-21 -8 -31 -26 -45 -5 -45 70 l0 70 35 0 c24 0 35 5 35 15 0 10 -11 15 -35 15
-33 0 -35 2 -35 35 0 19 -3 35 -7 35 -5 -1 -26 -16 -48 -35z"/>
<path d="M1408 886 c-21 -7 -38 -10 -38 -5 0 5 -28 9 -62 9 -55 -1 -61 -2 -45
-14 23 -18 25 -163 2 -172 -35 -14 -10 -24 60 -24 70 0 95 10 60 24 -11 4 -15
22 -15 69 0 71 12 91 52 85 21 -3 23 -8 26 -76 2 -58 0 -73 -13 -78 -35 -14
-10 -24 60 -24 70 0 95 10 60 24 -13 4 -15 20 -13 73 3 64 5 68 31 77 38 14
47 -2 47 -80 0 -53 -3 -64 -22 -77 -22 -15 -18 -16 60 -16 76 -1 104 9 67 23
-11 4 -15 22 -15 75 0 90 -19 116 -83 115 -24 0 -55 -8 -67 -17 -21 -15 -26
-15 -40 -2 -24 22 -70 27 -112 11z"/>
<path d="M2213 889 c-46 -14 -83 -62 -83 -109 0 -31 6 -44 37 -70 34 -31 39
-32 106 -28 63 3 72 7 98 36 45 50 38 113 -14 149 -38 26 -100 36 -144 22z
m88 -58 c4 -18 4 -54 0 -80 -5 -41 -9 -46 -34 -49 -21 -3 -29 2 -37 23 -5 14
-10 41 -10 60 0 19 5 46 10 60 8 21 16 26 37 23 22 -2 29 -10 34 -37z"/>
<path d="M2749 891 c-75 -23 -109 -75 -89 -137 18 -52 53 -74 121 -74 47 0 63
5 88 26 17 14 28 30 25 36 -4 5 -13 3 -23 -6 -38 -35 -106 -15 -124 37 -6 15
2 17 73 17 70 0 80 2 80 18 0 28 -30 63 -66 78 -37 15 -47 16 -85 5z m55 -27
c9 -8 16 -24 16 -35 0 -16 -7 -19 -40 -19 -46 0 -53 17 -20 50 24 24 24 24 44
4z"/>
<path d="M3375 891 c-71 -17 -99 -58 -56 -81 26 -13 33 -13 55 3 16 11 17 17
7 36 -12 21 -11 22 21 19 27 -2 34 -8 36 -28 2 -22 -3 -27 -50 -44 -60 -20
-98 -51 -98 -77 0 -38 68 -51 121 -24 27 14 31 14 46 -1 21 -20 84 -14 109 11
16 16 16 17 -7 13 -23 -3 -24 0 -29 72 -5 74 -6 75 -40 92 -37 19 -65 21 -115
9z m65 -130 c0 -30 -19 -45 -45 -35 -21 8 -19 20 7 44 29 27 38 25 38 -9z"/>
<path d="M4044 893 c-30 -6 -82 -57 -90 -87 -9 -37 13 -82 51 -106 39 -24 123
-27 165 -5 33 17 60 61 60 97 0 67 -96 119 -186 101z m84 -88 c4 -81 -3 -105
-31 -105 -35 0 -47 19 -47 78 0 69 13 94 48 90 26 -3 27 -6 30 -63z"/>
<path d="M4455 893 c-11 -3 -30 -14 -42 -26 l-23 -20 0 21 c0 20 -5 22 -62 22
-55 -1 -61 -2 -45 -14 24 -18 26 -176 2 -176 -8 0 -15 -4 -15 -10 0 -6 33 -10
80 -10 76 0 105 11 59 23 -20 5 -21 11 -17 62 6 70 26 95 62 76 28 -16 53 -9
63 15 6 15 -21 46 -36 43 -3 -1 -15 -3 -26 -6z"/>
<path d="M4636 889 c-69 -17 -97 -57 -55 -80 16 -8 28 -8 45 0 26 12 31 30 12
50 -11 10 -5 12 27 9 35 -3 40 -6 40 -27 0 -20 -10 -28 -64 -50 -77 -31 -98
-56 -75 -89 18 -26 58 -29 109 -8 29 13 35 13 46 0 17 -21 73 -17 100 6 22 19
22 20 4 18 -18 -3 -20 4 -23 70 -2 62 -6 74 -25 87 -30 19 -94 26 -141 14z
m74 -128 c0 -21 -6 -32 -20 -36 -42 -13 -55 23 -18 49 32 22 38 20 38 -13z"/>
<path d="M7409 734 c-19 -23 1 -48 42 -54 l34 -5 -27 -28 c-15 -15 -32 -27
-38 -27 -5 0 -10 -5 -10 -10 0 -6 16 -4 38 5 94 39 98 134 6 135 -17 0 -37 -7
-45 -16z"/>
<path d="M8189 734 c-21 -25 1 -49 46 -49 24 0 42 6 48 17 16 24 -8 48 -48 48
-18 0 -38 -7 -46 -16z"/>
<path d="M8806 735 c-31 -32 14 -65 69 -51 18 5 25 13 25 30 0 37 -64 51 -94
21z"/>
<path d="M6190 558 c0 -6 3 -8 6 -5 4 3 15 2 25 -4 16 -8 19 -22 19 -84 0 -87
-5 -105 -32 -105 -14 0 -18 5 -13 19 7 23 -18 45 -44 36 -31 -10 -32 -32 -3
-56 22 -17 37 -20 81 -17 77 7 91 27 91 129 0 76 3 85 33 80 4 0 7 4 7 9 0 6
-35 10 -85 10 -58 0 -85 -4 -85 -12z"/>
<path d="M6583 560 c-19 -8 -43 -38 -43 -55 0 -3 11 2 24 11 29 18 65 15 79
-7 18 -29 -2 -67 -58 -111 -29 -24 -54 -46 -54 -50 -1 -5 44 -8 99 -8 73 0
100 3 100 13 0 6 3 23 7 36 5 21 4 22 -15 12 -11 -6 -40 -11 -64 -11 l-43 1
30 22 c47 34 85 77 85 97 0 45 -86 74 -147 50z"/>
<path d="M6825 558 c-30 -16 -45 -39 -45 -68 0 -38 33 -64 81 -65 21 0 39 -2
39 -5 -1 -17 -35 -44 -77 -61 l-48 -20 48 5 c119 14 197 101 157 177 -23 42
-109 63 -155 37z m79 -24 c3 -9 6 -31 6 -50 0 -26 -4 -34 -18 -34 -10 0 -23 5
-30 12 -13 13 -17 70 -5 81 12 13 41 7 47 -9z"/>
<path d="M7065 558 c-30 -16 -45 -39 -45 -68 0 -38 33 -64 81 -65 21 0 39 -2
39 -5 -1 -17 -35 -44 -77 -61 l-48 -20 48 5 c119 14 197 101 157 177 -23 42
-109 63 -155 37z m79 -24 c3 -9 6 -31 6 -50 0 -27 -4 -34 -20 -34 -10 0 -24 9
-30 19 -11 22 -13 64 -3 74 12 13 41 7 47 -9z"/>
<path d="M7308 553 c-31 -20 -48 -59 -48 -110 0 -47 54 -103 99 -103 46 0 86
24 101 60 17 41 8 117 -18 142 -28 28 -99 34 -134 11z m82 -98 c0 -95 0 -95
-25 -95 -25 0 -25 1 -25 88 0 94 3 102 32 102 16 0 18 -10 18 -95z"/>
<path d="M7516 546 c-3 -13 -9 -31 -12 -40 -6 -14 -3 -14 22 -1 27 14 124 22
124 10 0 -3 -18 -41 -40 -85 -22 -44 -40 -82 -40 -85 0 -3 9 -5 20 -5 19 0 67
81 113 193 l16 37 -98 0 c-96 0 -99 -1 -105 -24z"/>
<path d="M7780 553 c-33 -22 -40 -33 -40 -64 0 -38 34 -64 86 -64 41 0 42 -1
30 -20 -7 -11 -37 -30 -67 -42 -36 -15 -46 -22 -31 -23 53 0 115 24 153 60 33
31 39 43 39 78 0 33 -6 45 -31 66 -37 31 -101 35 -139 9z m88 -35 c12 -46 4
-70 -21 -66 -23 3 -44 55 -34 82 11 29 46 19 55 -16z"/>
<path d="M8110 561 c-70 -22 -130 -79 -130 -124 0 -94 152 -134 205 -54 33 51
-12 107 -86 107 l-32 0 23 25 c13 14 44 31 69 39 46 14 46 14 11 14 -19 0 -46
-3 -60 -7z m8 -149 c2 -32 -1 -44 -14 -49 -23 -9 -44 22 -44 65 0 30 2 33 28
30 24 -3 27 -7 30 -46z"/>
<path d="M8267 550 c-56 -45 -58 -140 -4 -186 26 -22 38 -25 76 -21 65 7 91
40 91 113 0 48 -4 60 -29 85 -36 36 -95 40 -134 9z m87 -35 c4 -19 4 -62 0
-96 -6 -54 -9 -60 -28 -57 -19 3 -21 10 -24 82 -3 92 0 106 27 106 14 0 21 -9
25 -35z"/>
<path d="M8667 550 c-57 -45 -57 -145 1 -190 34 -27 104 -23 134 8 43 43 39
140 -7 180 -34 28 -93 30 -128 2z m87 -16 c3 -9 6 -44 6 -79 0 -35 -3 -70 -6
-79 -8 -21 -40 -21 -48 0 -8 21 -8 159 1 167 12 13 41 7 47 -9z"/>
<path d="M6370 420 c0 -18 7 -20 75 -20 68 0 75 2 75 20 0 18 -7 20 -75 20
-68 0 -75 -2 -75 -20z"/>
<path d="M8460 420 c0 -18 7 -20 70 -20 63 0 70 2 70 20 0 18 -7 20 -70 20
-63 0 -70 -2 -70 -20z"/>
</g>
</svg>
